<mxfile host="app.diagrams.net" modified="2023-09-20T22:35:10.328Z" agent="Mozilla/5.0 (Windows NT 10.0; Win64; x64) AppleWebKit/537.36 (KHTML, like Gecko) Chrome/116.0.0.0 Safari/537.36" etag="r9xwGqwf6Y6p_tBVf3W-" version="21.7.5" type="device">
  <diagram name="Page-1" id="RToZYSdI2lvEUdarF9eZ">
    <mxGraphModel dx="1049" dy="1747" grid="1" gridSize="10" guides="1" tooltips="1" connect="1" arrows="1" fold="1" page="1" pageScale="1" pageWidth="2000" pageHeight="3000" math="0" shadow="0">
      <root>
        <mxCell id="0" />
        <mxCell id="1" parent="0" />
        <mxCell id="TQ5ufJPgA8B5lT9nGRSe-1" value="" style="rounded=0;whiteSpace=wrap;html=1;" parent="1" vertex="1">
          <mxGeometry x="210" y="180" width="540" height="960" as="geometry" />
        </mxCell>
        <mxCell id="TQ5ufJPgA8B5lT9nGRSe-15" style="edgeStyle=orthogonalEdgeStyle;rounded=0;orthogonalLoop=1;jettySize=auto;html=1;exitX=0;exitY=0;exitDx=0;exitDy=0;" parent="1" source="TQ5ufJPgA8B5lT9nGRSe-2" edge="1">
          <mxGeometry relative="1" as="geometry">
            <mxPoint x="130" y="160" as="targetPoint" />
            <Array as="points">
              <mxPoint x="210" y="160" />
            </Array>
          </mxGeometry>
        </mxCell>
        <mxCell id="TQ5ufJPgA8B5lT9nGRSe-2" value="&lt;font style=&quot;font-size: 35px;&quot;&gt;&lt;b&gt;&lt;u&gt;GUI&lt;/u&gt;&lt;/b&gt; W540, H100&lt;/font&gt;" style="rounded=0;whiteSpace=wrap;html=1;fillColor=#66FFFF;" parent="1" vertex="1">
          <mxGeometry x="210" y="180" width="540" height="100" as="geometry" />
        </mxCell>
        <mxCell id="TQ5ufJPgA8B5lT9nGRSe-29" style="edgeStyle=orthogonalEdgeStyle;rounded=0;orthogonalLoop=1;jettySize=auto;html=1;exitX=0;exitY=0;exitDx=0;exitDy=0;entryX=1;entryY=0.5;entryDx=0;entryDy=0;" parent="1" source="TQ5ufJPgA8B5lT9nGRSe-3" target="TQ5ufJPgA8B5lT9nGRSe-18" edge="1">
          <mxGeometry relative="1" as="geometry">
            <Array as="points">
              <mxPoint x="170" y="300" />
              <mxPoint x="170" y="260" />
            </Array>
          </mxGeometry>
        </mxCell>
        <mxCell id="TQ5ufJPgA8B5lT9nGRSe-3" value="&lt;font style=&quot;font-size: 35px;&quot;&gt;&lt;br&gt;&lt;/font&gt;" style="rounded=0;whiteSpace=wrap;html=1;strokeColor=#000000;fillColor=#FFCCCC;" parent="1" vertex="1">
          <mxGeometry x="230" y="300" width="500" height="820" as="geometry" />
        </mxCell>
        <mxCell id="TQ5ufJPgA8B5lT9nGRSe-20" style="edgeStyle=orthogonalEdgeStyle;rounded=0;orthogonalLoop=1;jettySize=auto;html=1;exitX=0;exitY=0;exitDx=0;exitDy=0;" parent="1" source="TQ5ufJPgA8B5lT9nGRSe-4" edge="1">
          <mxGeometry relative="1" as="geometry">
            <mxPoint x="130" y="350" as="targetPoint" />
            <Array as="points">
              <mxPoint x="170" y="350" />
              <mxPoint x="170" y="350" />
            </Array>
          </mxGeometry>
        </mxCell>
        <mxCell id="TQ5ufJPgA8B5lT9nGRSe-4" value="&lt;font style=&quot;font-size: 35px;&quot;&gt;Card 1&lt;/font&gt;" style="rounded=0;whiteSpace=wrap;html=1;" parent="1" vertex="1">
          <mxGeometry x="250" y="350" width="130" height="200" as="geometry" />
        </mxCell>
        <mxCell id="TQ5ufJPgA8B5lT9nGRSe-32" style="edgeStyle=orthogonalEdgeStyle;rounded=0;orthogonalLoop=1;jettySize=auto;html=1;exitX=0;exitY=0;exitDx=0;exitDy=0;entryX=0;entryY=0.5;entryDx=0;entryDy=0;" parent="1" source="TQ5ufJPgA8B5lT9nGRSe-5" target="TQ5ufJPgA8B5lT9nGRSe-31" edge="1">
          <mxGeometry relative="1" as="geometry">
            <Array as="points">
              <mxPoint x="415" y="290" />
              <mxPoint x="800" y="290" />
              <mxPoint x="800" y="210" />
            </Array>
          </mxGeometry>
        </mxCell>
        <mxCell id="TQ5ufJPgA8B5lT9nGRSe-5" value="&lt;font style=&quot;font-size: 35px;&quot;&gt;Card 2&lt;/font&gt;" style="rounded=0;whiteSpace=wrap;html=1;" parent="1" vertex="1">
          <mxGeometry x="415" y="350" width="130" height="200" as="geometry" />
        </mxCell>
        <mxCell id="TQ5ufJPgA8B5lT9nGRSe-35" style="edgeStyle=orthogonalEdgeStyle;rounded=0;orthogonalLoop=1;jettySize=auto;html=1;exitX=0;exitY=0;exitDx=0;exitDy=0;" parent="1" source="TQ5ufJPgA8B5lT9nGRSe-6" edge="1">
          <mxGeometry relative="1" as="geometry">
            <mxPoint x="870" y="320" as="targetPoint" />
            <Array as="points">
              <mxPoint x="580" y="320" />
              <mxPoint x="860" y="320" />
            </Array>
          </mxGeometry>
        </mxCell>
        <mxCell id="TQ5ufJPgA8B5lT9nGRSe-6" value="&lt;font style=&quot;font-size: 35px;&quot;&gt;Card 3&lt;/font&gt;" style="rounded=0;whiteSpace=wrap;html=1;" parent="1" vertex="1">
          <mxGeometry x="580" y="350" width="130" height="200" as="geometry" />
        </mxCell>
        <mxCell id="TQ5ufJPgA8B5lT9nGRSe-23" style="edgeStyle=orthogonalEdgeStyle;rounded=0;orthogonalLoop=1;jettySize=auto;html=1;exitX=0;exitY=0;exitDx=0;exitDy=0;" parent="1" source="TQ5ufJPgA8B5lT9nGRSe-7" edge="1">
          <mxGeometry relative="1" as="geometry">
            <mxPoint x="140" y="599.5" as="targetPoint" />
            <Array as="points">
              <mxPoint x="220" y="600" />
              <mxPoint x="220" y="600" />
            </Array>
          </mxGeometry>
        </mxCell>
        <mxCell id="TQ5ufJPgA8B5lT9nGRSe-7" value="&lt;font style=&quot;font-size: 35px;&quot;&gt;Card 4&lt;/font&gt;" style="rounded=0;whiteSpace=wrap;html=1;" parent="1" vertex="1">
          <mxGeometry x="250" y="600" width="130" height="200" as="geometry" />
        </mxCell>
        <mxCell id="TQ5ufJPgA8B5lT9nGRSe-9" value="&lt;font style=&quot;font-size: 35px;&quot;&gt;Card 5&lt;/font&gt;" style="rounded=0;whiteSpace=wrap;html=1;" parent="1" vertex="1">
          <mxGeometry x="415" y="600" width="130" height="200" as="geometry" />
        </mxCell>
        <mxCell id="TQ5ufJPgA8B5lT9nGRSe-10" value="&lt;font style=&quot;font-size: 35px;&quot;&gt;Card 6&lt;/font&gt;" style="rounded=0;whiteSpace=wrap;html=1;" parent="1" vertex="1">
          <mxGeometry x="580" y="600" width="130" height="200" as="geometry" />
        </mxCell>
        <mxCell id="TQ5ufJPgA8B5lT9nGRSe-25" style="edgeStyle=orthogonalEdgeStyle;rounded=0;orthogonalLoop=1;jettySize=auto;html=1;exitX=0;exitY=0;exitDx=0;exitDy=0;" parent="1" source="TQ5ufJPgA8B5lT9nGRSe-11" edge="1">
          <mxGeometry relative="1" as="geometry">
            <mxPoint x="150" y="849.5" as="targetPoint" />
            <Array as="points">
              <mxPoint x="220" y="850" />
              <mxPoint x="220" y="850" />
            </Array>
          </mxGeometry>
        </mxCell>
        <mxCell id="TQ5ufJPgA8B5lT9nGRSe-11" value="&lt;font style=&quot;font-size: 35px;&quot;&gt;Card 7&lt;/font&gt;" style="rounded=0;whiteSpace=wrap;html=1;" parent="1" vertex="1">
          <mxGeometry x="250" y="850" width="130" height="200" as="geometry" />
        </mxCell>
        <mxCell id="TQ5ufJPgA8B5lT9nGRSe-12" value="&lt;font style=&quot;font-size: 35px;&quot;&gt;Card 8&lt;/font&gt;" style="rounded=0;whiteSpace=wrap;html=1;" parent="1" vertex="1">
          <mxGeometry x="415" y="850" width="130" height="200" as="geometry" />
        </mxCell>
        <mxCell id="TQ5ufJPgA8B5lT9nGRSe-13" value="&lt;font style=&quot;font-size: 35px;&quot;&gt;Card 9&lt;/font&gt;" style="rounded=0;whiteSpace=wrap;html=1;" parent="1" vertex="1">
          <mxGeometry x="580" y="850" width="130" height="200" as="geometry" />
        </mxCell>
        <mxCell id="TQ5ufJPgA8B5lT9nGRSe-16" value="&lt;font style=&quot;font-size: 35px;&quot;&gt;0,0&lt;/font&gt;" style="rounded=0;whiteSpace=wrap;html=1;" parent="1" vertex="1">
          <mxGeometry x="10" y="130" width="120" height="60" as="geometry" />
        </mxCell>
        <mxCell id="TQ5ufJPgA8B5lT9nGRSe-18" value="&lt;font style=&quot;font-size: 35px;&quot;&gt;20,120&lt;/font&gt;" style="rounded=0;whiteSpace=wrap;html=1;" parent="1" vertex="1">
          <mxGeometry x="10" y="230" width="120" height="60" as="geometry" />
        </mxCell>
        <mxCell id="TQ5ufJPgA8B5lT9nGRSe-21" value="&lt;font style=&quot;font-size: 35px;&quot;&gt;40,170&lt;/font&gt;" style="rounded=0;whiteSpace=wrap;html=1;" parent="1" vertex="1">
          <mxGeometry x="10" y="320" width="120" height="60" as="geometry" />
        </mxCell>
        <mxCell id="TQ5ufJPgA8B5lT9nGRSe-24" value="&lt;font style=&quot;font-size: 35px;&quot;&gt;40,420&lt;/font&gt;" style="rounded=0;whiteSpace=wrap;html=1;" parent="1" vertex="1">
          <mxGeometry x="20" y="570" width="120" height="60" as="geometry" />
        </mxCell>
        <mxCell id="TQ5ufJPgA8B5lT9nGRSe-26" value="&lt;font style=&quot;font-size: 35px;&quot;&gt;40,670&lt;/font&gt;" style="rounded=0;whiteSpace=wrap;html=1;" parent="1" vertex="1">
          <mxGeometry x="30" y="820" width="120" height="60" as="geometry" />
        </mxCell>
        <mxCell id="TQ5ufJPgA8B5lT9nGRSe-31" value="&lt;font style=&quot;font-size: 35px;&quot;&gt;205,170&lt;/font&gt;" style="rounded=0;whiteSpace=wrap;html=1;" parent="1" vertex="1">
          <mxGeometry x="860" y="180" width="140" height="60" as="geometry" />
        </mxCell>
        <mxCell id="TQ5ufJPgA8B5lT9nGRSe-36" value="&lt;font style=&quot;font-size: 35px;&quot;&gt;370,170&lt;/font&gt;" style="rounded=0;whiteSpace=wrap;html=1;" parent="1" vertex="1">
          <mxGeometry x="870" y="290" width="140" height="60" as="geometry" />
        </mxCell>
      </root>
    </mxGraphModel>
  </diagram>
</mxfile>
